# AST/ASF file generated using VICON BodyLanguage
# -----------------------------------------------
:version 1.10
:name VICON
:units
  mass 1.0
  length 0.45
  angle deg
:documentation
   .ast/.asf automatically generated from VICON data using
   VICON BodyBuilder and BodyLanguage model FoxedUp or BRILLIANT.MOD
:root
   order TX TY TZ RX RY RZ
   axis XYZ
   position 0 0 0  
   orientation 0 0 0 
:bonedata
  begin
     id 1 
     name lhipjoint
     direction 0.543289 -0.788407 0.288535 
     length 2.57127 
     axis 0 0 0  XYZ
  end
  begin
     id 2 
     name lfemur
     direction 0.34202 -0.939693 0  
     length 8.47298  
     axis 0 0 20  XYZ
    dof rx ry rz
    limits (-160.0 20.0)
           (-70.0 70.0)
           (-60.0 70.0)
  end
  begin
     id 3 
     name ltibia
     direction 0.34202 -0.939693 0   
     length 8.13367   
     axis 0 0 20   XYZ
    dof rx
    limits (-10.0 170.0)
  end
  begin
     id 4 
     name lfoot
     direction 0.114037 -0.313314 0.942778   
     length 2.67113   
     axis -90 7.62852e-016 20   XYZ
    dof rx rz
    limits (-45.0 90.0)
           (-70.0 20.0)
  end
  begin
     id 5 
     name ltoes
     direction 1.536e-011 -4.21847e-011 1   
     length 1.32217   
     axis -90 7.62852e-016 20   XYZ
    dof rx
    limits (-90.0 20.0)
  end
  begin
     id 6 
     name rhipjoint
     direction -0.571293 -0.770752 0.282074   
     length 2.63017  
     axis 0 0 0  XYZ 
  end
  begin
     id 7 
     name rfemur
     direction -0.34202 -0.939693 0   
     length 8.60885   
     axis 0 0 -20   XYZ
    dof rx ry rz
    limits (-160.0 20.0)
           (-70.0 70.0)
           (-70.0 60.0)
  end
  begin
     id 8 
     name rtibia
     direction -0.34202 -0.939693 0   
     length 8.07673   
     axis 0 0 -20   XYZ
    dof rx
    limits (-10.0 170.0)
 end
 begin
     id 9 
     name rfoot
     direction -0.121336 -0.333368 0.934956   
     length 2.81602  
     axis -90 -7.62852e-016 -20   XYZ
    dof rx rz
    limits (-45.0 90.0)
           (-20.0 70.0)
  end
  begin
     id 10 
     name rtoes
     direction -1.53491e-011 -4.21808e-011 1   
     length 1.38905   
     axis -90 -7.62852e-016 -20   XYZ
    dof rx
    limits (-90.0 20.0)
  end
  begin
     id 11 
     name lowerback
     direction 0.0136776 0.999869 -0.00861835   
     length 2.14087   
     axis 0 0 0   XYZ
    dof rx ry rz
    limits (-20.0 45.0)
           (-30.0 30.0)
           (-30.0 30.0)
  end
  begin
     id 12 
     name upperback
     direction -0.00789158 0.999804 0.0181308   
     length 2.14151   
     axis 0 0 0   XYZ
    dof rx ry rz
    limits (-20.0 45.0)
           (-30.0 30.0)
           (-30.0 30.0)
  end
  begin
     id 13 
     name thorax
     direction -0.0135231 0.999666 0.0220247   
     length 2.13644   
     axis 0 0 0   XYZ
    dof rx ry rz
    limits (-20.0 45.0)
           (-30.0 30.0)
           (-30.0 30.0)
  end
  begin
     id 14 
     name lowerneck
     direction -0.0392259 0.997317 0.0618018   
     length 1.65045   
     axis 0 0 0   XYZ
    dof rx ry rz
    limits (-20.0 45.0)
           (-30.0 30.0)
           (-30.0 30.0)
  end
  begin
     id 15 
     name upperneck
     direction 0.0765547 0.994276 -0.0745319   
     length 1.66045   
     axis 0 0 0   XYZ
    dof rx ry rz
    limits (-20.0 45.0)
           (-30.0 30.0)
           (-30.0 30.0)
  end
  begin
     id 16
     name head
     direction 0.0241564 0.999031 -0.036785  
     length 1.66594  
     axis 0 0 0   XYZ
    dof rx ry rz
    limits (-20.0 45.0)
           (-30.0 30.0)
           (-30.0 30.0)
  end
  begin
     id 17 
     name lclavicle
     direction 0.967398 0.249018 0.0461573  
     length 3.75176  
     axis 0 0 0   XYZ
    dof ry rz
    limits (-20.0 10.0)
           (0.0 20.0)
  end
  begin
     id 18 
     name lhumerus
     direction 1 -4.48963e-011 -3.05005e-027   
     length 5.93342   
     axis 180 -30 -90   XYZ
    dof rx ry rz
    limits (-60.0 90.0)
           (-90.0 90.0)
           (-90.0 90.0)
  end
  begin
     id 19
     name lradius
     direction 1 -4.48957e-011 1.07006e-026   
     length 3.94763   
     axis 180 -30 -90   XYZ
    dof rx
    limits (-10.0 170.0)
  end
  begin
     id 20
     name lwrist
     direction 1 -4.48978e-011 1.92422e-026   
     length 1.97382   
     axis -1.18182e-014 90 90   XYZ
    dof ry
    limits (-180.0 0.0)
 end
  begin
     id 21 
     name lhand
     direction 1 -4.48931e-011 3.84844e-026   
     length 0.560187   
     axis -2.45563e-014 90 90   XYZ
    dof rx rz
    limits (-90.0 90.0)
           (-45.0 45.0)
  end
  begin
     id 22 
     name lfingers
     direction 1 -4.48952e-011 7.69687e-026   
     length 0.451637   
     axis -4.91126e-014 90 90   XYZ
    dof rx
    limits (0.0 90.0)
  end
  begin
     id 23
     name lthumb
     direction 0.707107 -6.34901e-011 0.707107   
     length 0.648463   
     axis -90 45 2.85299e-015   XYZ
    dof rx rz
    limits (-45.0 45.0)
           (-45.0 45.0)
  end
  begin
     id 24 
     name rclavicle
     direction -0.965946 0.258716 0.00371831   
     length 3.63667  
     axis 0 0 0   XYZ 
    dof ry rz
    limits (-10.0 20.0)
           (-20.0 0.0)
  end
  begin
     id 25 
     name rhumerus
     direction -1 -4.48966e-011 -1.78361e-028  
     length 6.28647   
     axis 180 30 90   XYZ
    dof rx ry rz
    limits (-90.0 60.0)
           (-90.0 90.0)
           (-90.0 90.0)
  end
  begin
     id 26 
     name rradius
     direction -1 -4.48961e-011 1.05248e-026   
     length 3.81645   
     axis 180 30 90   XYZ
    dof rx
    limits (-10.0 170.0)
  end
  begin
     id 27 
     name rwrist
     direction -1 -4.48979e-011 1.92422e-026   
     length 1.90822   
     axis -1.18182e-014 -90 -90   XYZ
    dof ry
    limits (-180.0 0.0)
  end
  begin
     id 28
     name rhand
     direction -1 -4.48937e-011 3.84844e-026   
     length 0.646185   
     axis -2.45563e-014 -90 -90   XYZ
    dof rx rz
    limits (-90.0 90.0)
           (-45.0 45.0)
  end
  begin
     id 29
     name rfingers
     direction -1 -4.48953e-011 7.69687e-026   
     length 0.520971   
     axis -4.91126e-014 -90 -90   XYZ
    dof rx
    limits (0.0 90.0)
  end
  begin
     id 30
     name rthumb
     direction -0.707107 -6.3494e-011 0.707107   
     length 0.748013   
     axis -90 -45 -2.85299e-015   XYZ
    dof rx rz
    limits (-45.0 45.0)
           (-45.0 45.0)
  end
:hierarchy
  begin
    root lhipjoint rhipjoint lowerback
    lhipjoint lfemur
    lfemur ltibia
    ltibia lfoot
    lfoot ltoes
    rhipjoint rfemur
    rfemur rtibia
    rtibia rfoot
    rfoot rtoes
    lowerback upperback
    upperback thorax
    thorax lowerneck lclavicle rclavicle
    lowerneck upperneck
    upperneck head
    lclavicle lhumerus
    lhumerus lradius
    lradius lwrist
    lwrist lhand lthumb
    lhand lfingers
    rclavicle rhumerus
    rhumerus rradius
    rradius rwrist
    rwrist rhand rthumb
    rhand rfingers
  end

#!OML:ASF H:\HAZMAT1\Patient Classification 1\Patient 3\Session 1\dancer.ASF
:FULLY-SPECIFIED
:DEGREES
104
upperback 1.733570 -12.359100 3.880170
rfoot -26.457500 -14.150400
lradius 65.801201
lthumb 33.493801 33.626499
rradius 18.454100
lwrist 25.531200
rhand -22.634501 -30.764601
rhumerus -53.320900 -4.259740 -37.200600
lowerneck -8.186500 8.394680 8.078240
lhand 8.280650 6.731760
ltibia 53.582199
head 5.223220 5.502830 -5.142300
rwrist 17.176001
lfingers 7.125020
rtoes -32.271500
lowerback -0.525488 -9.285950 12.351300
rfingers 7.125020
lclavicle 0.000000 -0.000000
upperneck 8.029600 12.142700 -15.347500
rfemur -22.786200 23.077801 -20.350700
thorax 0.414092 -5.963450 -2.572320
rclavicle 0.000000 -0.000000
rtibia 30.675200
lfoot -16.963200 -9.799980
lhumerus 43.277401 -29.198999 39.124199
rthumb 3.796040 -60.710499
root 32.893200 17.541401 31.733000 -700.661011 143.389008 -1090.900024
ltoes 6.287400
lfemur -60.918800 -19.139999 -11.510700
105
upperback 1.786050 -9.994150 3.220550
rfoot -22.002399 -25.231001
lradius 64.020401
lthumb 36.072399 33.428299
rradius 20.819700
lwrist 23.506100
rhand -22.325100 -30.642000
rhumerus -35.085098 3.882720 -35.019798
lowerneck -8.220050 8.269870 7.934720
lhand 10.998200 7.129620
ltibia 64.841400
head 5.741690 5.455200 -4.903810
rwrist 13.247500
lfingers 7.125020
rtoes 1.586860
lowerback -0.309013 -7.490280 11.848000
rfingers 7.125020
lclavicle 0.000000 0.000000
upperneck 9.888170 12.131500 -14.687100
rfemur -25.766001 -11.745600 -6.616340
thorax 0.624483 -4.804020 -3.099590
rclavicle 0.000000 0.000000
rtibia 61.473801
lfoot -22.261801 -1.645930
lhumerus 36.493900 -29.190300 35.414902
rthumb 4.094860 -60.582401
root 29.944401 16.639500 27.984100 -705.083984 124.320000 -1092.349976
ltoes 17.710600
lfemur -60.557201 -12.040300 -34.522701
106
upperback 1.323300 -3.556960 1.499900
rfoot -19.087601 6.460710
lradius 60.390900
lthumb 34.751801 34.491798
rradius 26.198200
lwrist 22.293699
rhand -24.284901 -28.085300
rhumerus -19.573200 11.600600 -41.574699
lowerneck -9.129440 6.852190 7.640040
lhand 9.605260 7.878110
ltibia 54.852501
head 7.064470 4.573190 -4.064130
rwrist 9.465040
lfingers 7.125020
rtoes -30.376600
lowerback 0.516102 -2.706080 12.801800
rfingers 7.125020
lclavicle 0.000000 -0.000000
upperneck 14.906300 10.304800 -11.694000
rfemur -16.288601 -26.578800 24.962799
thorax 0.421010 -1.658070 -5.556270
rclavicle 0.000000 -0.000000
rtibia 67.763496
lfoot -18.685200 15.497500
lhumerus 17.462000 -27.023199 35.547600
rthumb 2.202180 -58.053699
root 27.539700 16.394300 24.059999 -641.732971 91.990303 -1021.320007
ltoes 28.490999
lfemur -58.145401 -3.018420 -42.713501
107
upperback 1.344110 -4.591580 1.976790
rfoot -43.253700 -16.122400
lradius 52.338799
lthumb 34.532799 35.572102
rradius 22.953199
lwrist 14.772400
rhand -25.304300 -27.195000
rhumerus -19.807699 5.004300 -39.722900
lowerneck -8.241640 -4.904060 -2.646140
lhand 9.374460 8.908170
ltibia 61.183601
head 6.378750 -3.122590 0.887117
rwrist 15.235200
lfingers 7.125020
rtoes -15.406900
lowerback 0.602099 -3.484280 13.256600
rfingers 7.125020
lclavicle 0.000000 -0.000000
upperneck 15.893500 -6.710800 3.104820
rfemur -23.919701 -13.071700 23.570200
thorax 0.206285 -2.187480 -5.264420
rclavicle 0.000000 -0.000000
rtibia 57.612202
lfoot -14.062000 4.065910
lhumerus 11.677800 -22.180599 38.962200
rthumb 1.217690 -57.171200
root 24.814301 16.874100 19.547100 -533.465027 120.362000 -910.862000
ltoes 0.372727
lfemur -63.304798 -9.024170 -22.762400
108
upperback 1.252240 -10.687900 3.128160
rfoot -25.434700 -11.637200
lradius 41.664001
lthumb 29.552500 36.028900
rradius 22.670500
lwrist 10.146800
rhand -24.527700 -29.081400
rhumerus -30.557699 -1.904390 -28.279800
lowerneck -5.001760 -9.535630 -8.216160
lhand 4.143330 8.361580
ltibia 76.291901
head 6.053530 -6.383560 3.684300
rwrist 12.429700
lfingers 7.125020
rtoes -14.087800
lowerback -1.996210 -7.794080 9.312660
rfingers 7.125020
lclavicle -0.000000 0.000000
upperneck 12.986200 -13.608600 10.779200
rfemur -45.256302 13.466900 6.768200
thorax 1.338580 -5.226790 -2.091030
rclavicle -0.000000 0.000000
rtibia 53.297100
lfoot -10.187400 -12.446900
lhumerus 6.830670 -17.955999 45.454399
rthumb 1.967760 -59.052101
root 23.691200 17.440300 15.352800 -527.043030 151.498001 -906.132996
ltoes 6.617040
lfemur -34.978199 -16.395201 -16.182400
109
upperback 0.894535 -8.809250 2.539500
rfoot -21.076300 -19.238001
lradius 36.325699
lthumb 26.164301 37.760601
rradius 26.191000
lwrist 1.749300
rhand -23.465000 -27.176701
rhumerus -25.511700 -5.881150 -33.315102
lowerneck -2.088790 -10.869400 -9.616680
lhand 0.599282 9.543630
ltibia 50.531502
head 6.222760 -7.698410 4.907230
rwrist 7.563780
lfingers 7.125020
rtoes -3.389840
lowerback 0.827868 -6.620180 5.258410
rfingers 7.125020
lclavicle 0.000000 -0.000000
upperneck 12.920800 -16.242800 14.406200
rfemur -54.332298 5.952160 12.528700
thorax 0.077617 -4.390430 -0.198290
rclavicle 0.000000 -0.000000
rtibia 51.847099
lfoot -28.784000 11.933200
lhumerus -16.495800 -8.878310 52.929298
rthumb 2.994020 -57.135502
root 23.912201 17.884399 11.053800 -518.742004 201.113998 -908.781982
ltoes 17.474001
lfemur -33.639000 -15.803900 -24.222500
110
upperback 0.618640 -6.450450 1.220140
rfoot 8.464350 -28.073999
lradius 26.371099
lthumb 22.952801 36.967201
rradius 33.326599
lwrist -7.337220
rhand -22.372900 -24.354500
rhumerus -21.189699 -1.044780 -44.407902
lowerneck -1.381390 -13.255100 -9.314770
lhand -2.751130 8.313520
ltibia 53.450298
head 6.846860 -9.486800 3.699950
rwrist 1.890290
lfingers 7.125020
rtoes 23.849899
lowerback 2.278780 -4.897780 3.177510
rfingers 7.125020
lclavicle -0.000000 -0.000000
upperneck 14.801600 -19.646400 11.903700
rfemur -30.274500 8.690970 2.956310
thorax -0.844260 -3.230480 -0.312554
rclavicle -0.000000 -0.000000
rtibia 59.520699
lfoot -22.974501 6.368590
lhumerus -39.770802 4.651830 62.755199
rthumb 4.048690 -54.295799
root 24.217100 18.050800 7.885260 -510.548004 242.231003 -917.565002
ltoes 8.607460
lfemur -47.466599 -23.997101 -12.158300
111
upperback 0.494349 -4.171320 0.347356
rfoot 0.958008 -35.619900
lradius 19.832500
lthumb 28.401699 35.994099
rradius 51.016998
lwrist -23.473301
rhand -23.657801 -18.953300
rhumerus -26.993799 16.523899 -64.484497
lowerneck 0.648050 -13.472700 -9.500990
lhand 2.938420 8.129060
ltibia 54.806599
head 7.345940 -10.268500 3.033350
rwrist 10.904300
lfingers 7.125020
rtoes 7.067840
lowerback 1.131810 -3.128740 0.094358
rfingers 7.125020
lclavicle -0.000000 0.000000
upperneck 17.731701 -20.645700 9.752990
rfemur -16.314501 0.674249 0.409688
thorax -0.107778 -2.086590 0.351976
rclavicle -0.000000 0.000000
rtibia 37.424500
lfoot -23.448999 6.666400
lhumerus -62.882599 12.218700 62.640598
rthumb 2.807880 -48.914600
root 23.957701 17.948700 4.814670 -375.260010 252.658005 -1058.199951
ltoes 1.051380
lfemur -35.099201 -13.244800 -4.494790
112
upperback 0.626111 -5.453330 -1.240490
rfoot -14.419100 -24.090599
lradius 19.552700
lthumb 18.171200 44.104698
rradius 54.613300
lwrist -19.891100
rhand -24.227600 -20.844900
rhumerus -47.903500 8.722180 -72.773697
lowerneck -2.136720 -9.610740 -9.437770
lhand -7.727330 14.933500
ltibia 55.890400
head 8.396190 -8.149990 3.421510
rwrist 10.604100
lfingers 7.125020
rtoes -3.937920
lowerback 0.328284 -4.088210 2.428860
rfingers 7.125020
lclavicle -0.000000 0.000000
upperneck 20.844000 -16.157801 10.162500
rfemur -20.577900 6.564230 13.121500
thorax 0.112098 -2.721630 -2.597420
rclavicle -0.000000 0.000000
rtibia 36.028500
lfoot 0.309274 25.400299
lhumerus -61.769001 12.905300 42.179699
rthumb 2.257540 -50.812698
root 24.792500 18.542500 0.944547 -361.605988 223.188004 -1073.089966
ltoes -1.524990
lfemur -21.069401 -18.424299 4.451490
113
upperback 0.589320 -5.916330 -1.530150
rfoot -16.658100 -17.876900
lradius 16.875299
lthumb 8.815980 57.702999
rradius 38.244900
lwrist -28.063101
rhand -30.464100 -27.176901
rhumerus -50.847099 -0.631607 -46.399399
lowerneck -4.079390 -5.228520 -3.082430
lhand -17.434601 27.907200
ltibia 48.122700
head 7.137230 -4.776560 1.301110
rwrist 6.047390
lfingers 7.125020
rtoes 4.820390
lowerback 0.280680 -4.433920 5.173080
rfingers 7.125020
lclavicle -0.000000 0.000000
upperneck 19.976601 -9.215410 4.783130
rfemur -25.974899 9.396280 20.479900
thorax -0.233541 -2.957950 -4.399150
rclavicle -0.000000 0.000000
rtibia 40.118198
lfoot -13.821800 14.455800
lhumerus -48.678699 18.173700 24.107901
rthumb -3.765660 -57.123299
root 25.545601 18.829300 -1.501980 -355.290009 200.192001 -1077.079956
ltoes 3.591160
lfemur -30.949400 -18.437401 -1.697480
